<?xml version="1.0" standalone="no"?>
<!DOCTYPE svg PUBLIC "-//W3C//DTD SVG 20010904//EN"
 "http://www.w3.org/TR/2001/REC-SVG-20010904/DTD/svg10.dtd">
<svg version="1.0" xmlns="http://www.w3.org/2000/svg"
 width="512.000000pt" height="512.000000pt" viewBox="0 0 512.000000 512.000000"
 preserveAspectRatio="xMidYMid meet">
<metadata>
Created by potrace 1.14, written by Peter Selinger 2001-2017
</metadata>
<g transform="translate(0.000000,512.000000) scale(0.100000,-0.100000)"
fill="#000000" stroke="none">
<path d="M2110 4288 c-250 -35 -381 -67 -560 -137 -417 -163 -760 -490 -958
-911 -77 -163 -83 -180 -162 -445 -14 -46 -58 -302 -65 -375 -3 -36 -9 -83
-11 -105 -3 -22 -7 -143 -9 -269 l-3 -228 -65 -127 c-74 -142 -121 -252 -173
-403 -19 -57 -39 -111 -45 -120 -16 -30 -11 -331 6 -364 l14 -28 16 37 c8 20
15 41 15 48 0 14 79 214 123 310 64 141 266 489 284 489 2 0 11 -4 21 -10 81
-45 583 -282 680 -322 315 -128 581 -151 862 -76 283 75 608 269 930 555 190
169 384 400 605 722 352 511 456 644 662 842 202 195 469 372 721 477 57 25
75 57 22 42 -16 -5 -33 -11 -38 -14 -5 -3 -69 -15 -142 -27 -283 -45 -642 -5
-1050 116 -30 9 -80 23 -110 31 -30 9 -86 26 -125 39 -38 13 -86 28 -105 33
-19 6 -107 31 -195 56 -349 100 -448 122 -660 146 -49 6 -118 15 -151 20 -73
12 -243 11 -334 -2z m605 -304 c72 -7 166 -21 210 -29 44 -8 163 -31 265 -49
102 -19 212 -40 245 -46 33 -7 96 -18 140 -26 103 -18 209 -38 310 -58 169
-33 370 -49 543 -44 78 3 142 3 142 1 0 -2 -16 -11 -35 -19 -117 -48 -389
-236 -537 -370 -111 -102 -246 -242 -343 -359 -27 -33 -52 -62 -56 -65 -3 -3
-79 -95 -169 -205 -478 -586 -750 -857 -1082 -1082 -195 -132 -352 -200 -547
-239 -55 -10 -301 -6 -361 6 -30 7 -75 16 -99 21 -25 5 -59 14 -75 19 -17 5
-89 28 -161 51 -71 22 -139 44 -150 49 -15 7 -311 106 -404 136 -11 4 -8 11
10 32 14 15 38 45 54 67 98 134 332 381 525 556 271 245 607 491 905 663 225
129 288 163 449 241 141 69 497 225 513 225 5 1 26 9 48 20 22 11 47 19 55 20
9 0 20 4 25 9 6 4 48 21 95 37 100 33 97 31 82 46 -12 12 -41 6 -287 -54 -66
-16 -138 -33 -160 -38 -48 -10 -234 -63 -325 -92 -832 -268 -1472 -652 -1880
-1128 -70 -82 -213 -273 -249 -333 -13 -21 -25 -36 -27 -34 -5 5 33 286 51
372 8 39 19 95 25 125 15 74 78 287 96 327 8 17 14 36 14 41 0 11 38 98 96
218 151 314 387 580 660 742 91 54 122 70 229 117 161 70 466 135 700 149 94
5 317 -4 460 -20z"/>
</g>
</svg>
